#define 4990_cbf7780c1b3ee87caf02610b665cee14f64ff893ea2d127054e8cb48bc457e27-5_width 128
#define 4990_cbf7780c1b3ee87caf02610b665cee14f64ff893ea2d127054e8cb48bc457e27-5_height 128
static char 4990_cbf7780c1b3ee87caf02610b665cee14f64ff893ea2d127054e8cb48bc457e27-5_bits[] = {
  0x00, 0x00, 0x00, 0x00, 0x00, 0x00, 0x00, 0x00, 0x00, 0x00, 0x00, 0x00, 
  0x00, 0x00, 0x00, 0x00, 0x00, 0x00, 0x00, 0x00, 0x00, 0x00, 0x00, 0x00, 
  0x00, 0x00, 0x00, 0x00, 0x00, 0x00, 0x00, 0x00, 0x00, 0x00, 0x00, 0x00, 
  0x00, 0x00, 0x00, 0x00, 0x00, 0x00, 0x00, 0x00, 0x00, 0x00, 0x00, 0x00, 
  0x00, 0x00, 0x00, 0x00, 0x00, 0x00, 0x00, 0x00, 0x00, 0x00, 0x00, 0x00, 
  0x00, 0x00, 0x00, 0x00, 0x00, 0x00, 0x44, 0x04, 0x01, 0x00, 0x00, 0x00, 
  0x00, 0x00, 0x00, 0x40, 0x01, 0x20, 0x00, 0x00, 0x00, 0x00, 0x10, 0x01, 
  0x00, 0x00, 0x00, 0x00, 0x00, 0x00, 0x00, 0x00, 0x00, 0x09, 0x00, 0x00, 
  0x00, 0x40, 0x00, 0x00, 0x10, 0x00, 0x00, 0x00, 0x00, 0x00, 0x00, 0x00, 
  0x08, 0x60, 0x00, 0x00, 0x00, 0x00, 0x48, 0x10, 0x00, 0x00, 0x00, 0x00, 
  0x00, 0x00, 0x00, 0x00, 0x80, 0x04, 0x08, 0x00, 0x00, 0x40, 0x00, 0x20, 
  0x00, 0x00, 0x00, 0x00, 0x00, 0x00, 0x00, 0x00, 0x00, 0x04, 0x04, 0x00, 
  0x00, 0x20, 0x42, 0x01, 0x00, 0x00, 0x00, 0x00, 0x00, 0x00, 0x00, 0x00, 
  0x40, 0x60, 0x01, 0x00, 0x00, 0x00, 0x05, 0x00, 0x00, 0x00, 0x00, 0x00, 
  0x00, 0x00, 0x00, 0x00, 0x04, 0x41, 0x10, 0x00, 0x80, 0x42, 0xA0, 0xA6, 
  0x59, 0x92, 0x40, 0x20, 0x08, 0x10, 0x85, 0xB2, 0x65, 0x08, 0x84, 0x00, 
  0x00, 0x52, 0x24, 0x51, 0x01, 0x28, 0x4A, 0x92, 0x94, 0x4A, 0x51, 0x48, 
  0xA6, 0x15, 0x20, 0x00, 0x00, 0x00, 0x99, 0x0C, 0x58, 0x02, 0x00, 0x00, 
  0x00, 0x00, 0x08, 0x12, 0x80, 0x69, 0x0A, 0x00, 0x00, 0x08, 0xA6, 0x42, 
  0x89, 0x22, 0x00, 0x08, 0x42, 0x00, 0x04, 0x00, 0x0A, 0x40, 0x90, 0x00, 
  0x00, 0x92, 0x25, 0x24, 0x00, 0x00, 0x24, 0x40, 0x00, 0x20, 0x40, 0x24, 
  0x50, 0x96, 0x03, 0x00, 0xA0, 0x80, 0xC2, 0x00, 0x04, 0x80, 0x02, 0x00, 
  0x00, 0x02, 0x82, 0x84, 0x92, 0xA5, 0x92, 0x04, 0x00, 0x44, 0x28, 0x65, 
  0x10, 0x02, 0x80, 0x14, 0x08, 0x00, 0x08, 0x20, 0x08, 0x00, 0x05, 0x00, 
  0x00, 0xB1, 0x8A, 0x04, 0x01, 0x10, 0x00, 0x00, 0x80, 0x00, 0x10, 0x00, 
  0x00, 0x98, 0x00, 0x01, 0x90, 0x84, 0x10, 0x20, 0x88, 0x04, 0x10, 0x80, 
  0x00, 0x20, 0x00, 0x41, 0x52, 0x12, 0x2B, 0x04, 0x10, 0x10, 0x09, 0x04, 
  0x00, 0x08, 0x04, 0x08, 0x40, 0x80, 0x04, 0x20, 0x44, 0xC2, 0x48, 0x00, 
  0x00, 0x4A, 0x91, 0x21, 0x22, 0x80, 0x00, 0x00, 0xFF, 0x0F, 0x00, 0x04, 
  0x00, 0x24, 0x1A, 0x02, 0x00, 0xA0, 0x2A, 0x80, 0x00, 0x01, 0x20, 0x00, 
  0xEF, 0x1F, 0x80, 0x00, 0x10, 0x00, 0x20, 0x00, 0x90, 0x28, 0x00, 0x08, 
  0x08, 0x00, 0x00, 0x24, 0x7D, 0x0E, 0x00, 0x44, 0x84, 0xA4, 0x06, 0x02, 
  0x00, 0x50, 0x8A, 0x06, 0x60, 0x40, 0x00, 0xDE, 0xFB, 0x0F, 0x48, 0x00, 
  0x20, 0x09, 0x05, 0x00, 0x00, 0x14, 0x10, 0x80, 0x02, 0x08, 0x01, 0x7C, 
  0x9F, 0x19, 0x00, 0x00, 0x09, 0x50, 0x30, 0x00, 0x00, 0x00, 0x00, 0x02, 
  0x00, 0x00, 0x00, 0xDE, 0xF6, 0x4D, 0x00, 0x28, 0x80, 0x40, 0x08, 0x08, 
  0x20, 0xA1, 0x8A, 0x10, 0x00, 0x00, 0xFC, 0xFB, 0xBF, 0x1F, 0x00, 0x00, 
  0x00, 0x04, 0x12, 0x01, 0x00, 0x18, 0x12, 0x00, 0x00, 0x00, 0xB8, 0xFB, 
  0x5F, 0x0F, 0x00, 0x00, 0x08, 0x90, 0x00, 0x00, 0x10, 0x41, 0x00, 0x08, 
  0x88, 0x02, 0xFC, 0xDF, 0xF6, 0x15, 0x80, 0x00, 0x20, 0x08, 0x8A, 0x00, 
  0x00, 0x40, 0x05, 0x81, 0x00, 0x10, 0x7E, 0x96, 0xFD, 0x8F, 0x00, 0x88, 
  0x00, 0x02, 0x10, 0x00, 0x20, 0x10, 0x40, 0x00, 0x04, 0xF8, 0xF7, 0xFF, 
  0x6F, 0x2D, 0x01, 0x00, 0x80, 0x88, 0x04, 0x02, 0x10, 0x90, 0x48, 0x00, 
  0x02, 0xF0, 0xFF, 0xF7, 0xBD, 0x5F, 0x00, 0x00, 0x0A, 0x84, 0x04, 0x00, 
  0x00, 0x00, 0x01, 0x20, 0x00, 0xFA, 0x56, 0xAE, 0xE7, 0x0B, 0x00, 0x40, 
  0x00, 0x10, 0x10, 0x00, 0x00, 0x00, 0x00, 0x04, 0xF0, 0xFB, 0xDF, 0xFF, 
  0xBF, 0x1E, 0x05, 0x00, 0x00, 0x00, 0x06, 0x08, 0x00, 0x98, 0x24, 0x00, 
  0xE0, 0x6F, 0xFD, 0xD6, 0xF5, 0x4F, 0x00, 0x00, 0x80, 0x44, 0x00, 0x00, 
  0x00, 0x48, 0x02, 0x20, 0xF1, 0xBF, 0xF5, 0x5F, 0xFF, 0x06, 0x00, 0x00, 
  0x02, 0x02, 0x08, 0x00, 0x00, 0x00, 0x00, 0xC1, 0x7F, 0xFA, 0xDF, 0xFA, 
  0x99, 0x5F, 0x01, 0x02, 0x00, 0x40, 0x01, 0x00, 0x00, 0x00, 0x10, 0xE0, 
  0xDF, 0x9B, 0x56, 0x7B, 0xFF, 0x5F, 0x00, 0x00, 0x40, 0x00, 0x00, 0x00, 
  0x00, 0x90, 0x01, 0xE8, 0xFB, 0xFF, 0xFF, 0xDF, 0xDD, 0x06, 0x09, 0x00, 
  0x00, 0x90, 0x14, 0x00, 0x00, 0x00, 0xC0, 0xFF, 0x6F, 0xFA, 0x5B, 0xFB, 
  0xD5, 0x4F, 0x08, 0x00, 0x00, 0x00, 0x08, 0x00, 0x00, 0x20, 0x91, 0xDB, 
  0xFB, 0x9F, 0xFF, 0xDE, 0xFF, 0x16, 0x00, 0x00, 0x00, 0x08, 0x00, 0x00, 
  0x00, 0x40, 0xC0, 0xE9, 0xF5, 0xFE, 0xFD, 0x5F, 0x9F, 0x0F, 0x01, 0x00, 
  0x20, 0x20, 0x01, 0x00, 0x00, 0x10, 0xC8, 0x7F, 0x5F, 0xDB, 0x6B, 0xFA, 
  0xF6, 0xAD, 0x08, 0x00, 0x00, 0x00, 0x00, 0x00, 0x00, 0x08, 0x80, 0xFF, 
  0xBF, 0x6D, 0xFF, 0x6B, 0xFD, 0xA6, 0x20, 0x00, 0x00, 0x40, 0x02, 0x00, 
  0x00, 0x80, 0x80, 0xC0, 0xF5, 0xF7, 0xA6, 0xFF, 0x67, 0x0F, 0x02, 0x00, 
  0x08, 0x10, 0x00, 0x00, 0x00, 0x10, 0x12, 0xE0, 0x9F, 0xFF, 0xBF, 0x75, 
  0xFD, 0x2F, 0x01, 0x00, 0x00, 0x00, 0x00, 0x00, 0x00, 0x00, 0x00, 0xC0, 
  0xFB, 0x6D, 0xF6, 0xEF, 0xAF, 0x4E, 0x04, 0x00, 0x00, 0x02, 0x04, 0x00, 
  0x00, 0x80, 0x80, 0xE1, 0xB6, 0xFF, 0xB5, 0xFF, 0x6F, 0x4F, 0x08, 0x00, 
  0x80, 0x00, 0x02, 0x00, 0x00, 0x00, 0x00, 0x00, 0xF0, 0xA5, 0xFF, 0x66, 
  0xF9, 0x06, 0x41, 0x00, 0x00, 0x00, 0x00, 0x00, 0x00, 0x20, 0x00, 0x00, 
  0xF0, 0xBF, 0x67, 0xDF, 0x7F, 0x9D, 0x00, 0x00, 0x00, 0x00, 0x00, 0x00, 
  0x00, 0x00, 0x04, 0x00, 0xA0, 0xFD, 0xFD, 0xF5, 0xEB, 0x0F, 0x22, 0x00, 
  0x00, 0xA0, 0x04, 0x00, 0x00, 0x00, 0x00, 0x04, 0x40, 0xF0, 0xFB, 0xFD, 
  0xFA, 0x06, 0x00, 0x00, 0x00, 0x04, 0x08, 0x00, 0x00, 0x20, 0x21, 0x00, 
  0x04, 0x78, 0x9E, 0x5F, 0x6F, 0x5F, 0x86, 0x00, 0x00, 0x00, 0x00, 0x00, 
  0x00, 0x00, 0x00, 0x00, 0x00, 0xD8, 0xFF, 0xDA, 0xDF, 0x0F, 0x10, 0x00, 
  0x00, 0x00, 0x00, 0x00, 0x00, 0x10, 0x08, 0x10, 0x00, 0x50, 0xB8, 0xFF, 
  0xFA, 0x2E, 0x04, 0x00, 0x00, 0x80, 0x02, 0x00, 0x00, 0x00, 0x20, 0x80, 
  0x00, 0x00, 0xD8, 0x6F, 0xF6, 0x4B, 0x40, 0x00, 0x00, 0x10, 0x00, 0x00, 
  0x00, 0x80, 0x08, 0x00, 0x00, 0x00, 0xFC, 0xF6, 0xAF, 0x0F, 0x04, 0x00, 
  0x00, 0x00, 0x00, 0x00, 0x00, 0x00, 0x00, 0x44, 0x04, 0x00, 0x00, 0xFE, 
  0xBF, 0x9E, 0x06, 0x00, 0x00, 0x00, 0x02, 0x00, 0x00, 0x10, 0x00, 0x00, 
  0x20, 0x00, 0x00, 0x6C, 0xF6, 0x0B, 0x10, 0x00, 0x00, 0x00, 0x00, 0x00, 
  0x00, 0x00, 0x08, 0x00, 0x00, 0x00, 0x00, 0xFC, 0xFD, 0x2D, 0x24, 0x00, 
  0x00, 0x00, 0x00, 0x00, 0x00, 0x80, 0x42, 0x00, 0x00, 0x00, 0x00, 0x10, 
  0x9F, 0x07, 0x00, 0x02, 0x00, 0x00, 0x04, 0x00, 0x00, 0x00, 0x00, 0x10, 
  0x04, 0x00, 0x00, 0x00, 0xF6, 0x9D, 0x0A, 0x18, 0x00, 0x00, 0x00, 0x00, 
  0x00, 0x00, 0x00, 0x02, 0x00, 0x00, 0x00, 0x00, 0xBF, 0x0F, 0x80, 0x00, 
  0x00, 0x41, 0x00, 0x00, 0x00, 0x20, 0x02, 0x08, 0x00, 0x00, 0x00, 0x00, 
  0xFE, 0x0F, 0x89, 0x00, 0x00, 0x00, 0x00, 0x00, 0x00, 0x08, 0x00, 0x40, 
  0x00, 0x00, 0x00, 0x00, 0xFF, 0x5F, 0x00, 0x28, 0x00, 0x10, 0x01, 0x00, 
  0x00, 0x00, 0x10, 0x00, 0x08, 0x00, 0x00, 0x00, 0xFF, 0x1F, 0x20, 0x01, 
  0x00, 0x00, 0x00, 0x00, 0x00, 0x80, 0x00, 0x00, 0x00, 0x00, 0x00, 0x00, 
  0xFF, 0x0F, 0x02, 0x00, 0x00, 0x00, 0x04, 0x00, 0x00, 0x00, 0x04, 0x00, 
  0x02, 0x00, 0x00, 0x00, 0xFF, 0x2F, 0x10, 0x40, 0x00, 0x00, 0x08, 0x00, 
  0x00, 0x00, 0x80, 0x12, 0x00, 0x00, 0x00, 0x00, 0xFF, 0x0F, 0x04, 0x28, 
  0x00, 0x00, 0x00, 0x00, 0x00, 0x20, 0x00, 0x00, 0x00, 0x00, 0x00, 0x00, 
  0xFF, 0x8F, 0x82, 0x40, 0x00, 0x00, 0x00, 0x00, 0x00, 0x00, 0x80, 0x00, 
  0x00, 0x00, 0x00, 0x00, 0xFF, 0x1F, 0x08, 0x01, 0x00, 0x42, 0x01, 0x00, 
  0x00, 0x40, 0x02, 0x00, 0x00, 0x00, 0x00, 0x00, 0xFF, 0x1F, 0x10, 0x40, 
  0x00, 0x00, 0x00, 0x00, 0x00, 0x00, 0x00, 0x08, 0x00, 0x00, 0x00, 0x00, 
  0xFF, 0x4F, 0x01, 0x02, 0x00, 0x00, 0x00, 0x00, 0x00, 0x00, 0x88, 0x80, 
  0x00, 0x00, 0x00, 0x00, 0xFF, 0x1F, 0x80, 0x10, 0x00, 0x80, 0x01, 0x00, 
  0x00, 0x10, 0x00, 0x08, 0x81, 0x00, 0x00, 0x00, 0xFF, 0x0F, 0x14, 0x46, 
  0x02, 0x00, 0x00, 0x00, 0x00, 0x00, 0x80, 0x80, 0x00, 0x00, 0x00, 0x00, 
  0xFF, 0x4F, 0x80, 0x24, 0x00, 0x02, 0x08, 0x00, 0x00, 0x80, 0x00, 0x00, 
  0x00, 0x00, 0x00, 0x00, 0xFF, 0x0F, 0x14, 0x00, 0x02, 0x00, 0x00, 0x00, 
  0x00, 0x10, 0x01, 0x04, 0x00, 0x00, 0x00, 0x00, 0xFF, 0x0F, 0x01, 0x10, 
  0x82, 0x10, 0x02, 0x00, 0x00, 0x00, 0x04, 0x00, 0x12, 0x00, 0x00, 0x00, 
  0xFF, 0x8F, 0x08, 0x89, 0x00, 0x00, 0x00, 0x00, 0x00, 0x00, 0x00, 0x00, 
  0x00, 0x00, 0x00, 0x00, 0xFF, 0x1F, 0x24, 0x12, 0x02, 0x00, 0x08, 0x00, 
  0x00, 0x40, 0x01, 0x01, 0x80, 0x00, 0x00, 0x00, 0xFF, 0x8F, 0x02, 0x00, 
  0x08, 0x00, 0x00, 0x00, 0x00, 0x00, 0x10, 0x20, 0x02, 0x00, 0x00, 0x00, 
  0xFF, 0x0F, 0x94, 0x80, 0x00, 0x80, 0x02, 0x00, 0x00, 0x10, 0x08, 0x01, 
  0x00, 0x00, 0x00, 0x00, 0xFF, 0x1F, 0x00, 0x29, 0x11, 0x10, 0x00, 0x00, 
  0x00, 0x80, 0x00, 0x00, 0x00, 0x00, 0x00, 0x00, 0xFF, 0x2F, 0x42, 0x42, 
  0x04, 0x01, 0x00, 0x00, 0x00, 0x00, 0x00, 0x00, 0x88, 0x00, 0x00, 0x00, 
  0xFF, 0x0F, 0x00, 0x10, 0x80, 0x10, 0x10, 0x00, 0x00, 0x08, 0x82, 0x08, 
  0x00, 0xF8, 0xEF, 0xEE, 0xFF, 0xFF, 0xFF, 0x01, 0x18, 0x02, 0x08, 0x00, 
  0x00, 0x20, 0x20, 0x40, 0x00, 0xFC, 0xFF, 0xFF, 0xFF, 0xFF, 0xFF, 0x8B, 
  0x01, 0x80, 0x01, 0x00, 0x00, 0x88, 0x08, 0x04, 0x12, 0xF8, 0xFF, 0xFF, 
  0xFF, 0xFF, 0xFF, 0x23, 0x44, 0x20, 0x00, 0x00, 0x40, 0x00, 0x00, 0x20, 
  0x00, 0xFC, 0xFF, 0xFF, 0xFF, 0xFF, 0xFF, 0x03, 0x00, 0x00, 0x02, 0x00, 
  0x00, 0x00, 0x42, 0x00, 0x00, 0xFC, 0xFF, 0xFF, 0xFF, 0xFF, 0xFF, 0x17, 
  0x01, 0x00, 0x14, 0x00, 0x00, 0x40, 0x08, 0x00, 0x00, 0xF8, 0xFF, 0xFF, 
  0xFF, 0xFF, 0xFF, 0x83, 0x94, 0x41, 0x02, 0x00, 0x00, 0x90, 0x80, 0x10, 
  0x10, 0xFC, 0xFF, 0xFF, 0xFF, 0xFF, 0xFF, 0x0B, 0x42, 0x04, 0x02, 0x00, 
  0x00, 0x08, 0x01, 0x01, 0x00, 0xF8, 0xFF, 0xFF, 0xFF, 0xFF, 0xFF, 0x03, 
  0x08, 0x20, 0x00, 0x00, 0x00, 0x00, 0x20, 0x00, 0x04, 0xF8, 0xFF, 0xFF, 
  0xFF, 0xFF, 0xFF, 0x99, 0x90, 0x40, 0x16, 0x00, 0x10, 0x90, 0x04, 0x02, 
  0x00, 0xFC, 0xFF, 0xFF, 0xFF, 0xFF, 0xFF, 0x03, 0x00, 0x11, 0x00, 0x00, 
  0x00, 0x10, 0x00, 0xF0, 0xFF, 0xFF, 0xFF, 0xFF, 0xFF, 0xFF, 0xFF, 0xFF, 
  0xFF, 0x80, 0x12, 0x04, 0x00, 0x81, 0xA5, 0xF0, 0xFF, 0xFF, 0xFF, 0xFF, 
  0xFF, 0xFF, 0xFF, 0xFF, 0xFF, 0x09, 0x00, 0x00, 0x00, 0x50, 0x80, 0xF0, 
  0xFF, 0xFF, 0xFF, 0xFF, 0xFF, 0xFF, 0xFF, 0xFF, 0xFF, 0x10, 0x04, 0x02, 
  0x10, 0x00, 0x02, 0xFA, 0xFF, 0xFF, 0xFF, 0xFF, 0xFF, 0xFF, 0xFF, 0xFF, 
  0xFF, 0x85, 0x12, 0x00, 0x00, 0x5C, 0x06, 0xFF, 0xFF, 0xFF, 0xFF, 0xFF, 
  0xFF, 0xFF, 0xFF, 0xFF, 0xFF, 0x0F, 0x05, 0x00, 0x80, 0x00, 0x00, 0xFE, 
  0xFF, 0xFF, 0xFF, 0xFF, 0xFF, 0xFF, 0xFF, 0xFF, 0xFF, 0x4F, 0x90, 0x01, 
  0x00, 0x68, 0x10, 0xFF, 0xFF, 0xFF, 0xFF, 0xFF, 0xFF, 0xFF, 0xFF, 0xFF, 
  0xFF, 0x6F, 0x0D, 0x00, 0x20, 0x00, 0x45, 0xFF, 0xFF, 0xFF, 0xFF, 0xFF, 
  0xFF, 0xFF, 0xFF, 0xFF, 0xFF, 0x0F, 0x00, 0x00, 0x00, 0x28, 0x00, 0xFE, 
  0xFF, 0xFF, 0xFF, 0xFF, 0xFF, 0xFF, 0xFF, 0xFF, 0xFF, 0x1F, 0x41, 0x00, 
  0x90, 0xA0, 0x2B, 0xFF, 0xFF, 0xFF, 0xFF, 0xFF, 0xFF, 0xFF, 0xFF, 0xFF, 
  0xFF, 0x8F, 0x0C, 0x0A, 0x00, 0x80, 0x50, 0xFE, 0xFF, 0xFF, 0xFF, 0xFF, 
  0xFF, 0xFF, 0xFF, 0xFF, 0xFF, 0xAF, 0x02, 0x02, 0x20, 0x20, 0x09, 0xFF, 
  0xFF, 0xFF, 0xFF, 0xFF, 0xFF, 0xFF, 0xFF, 0xFF, 0xFF, 0x27, 0x04, 0x00, 
  0x40, 0x41, 0x08, 0xFF, 0xFF, 0xFF, 0xFF, 0xFF, 0xFF, 0xFF, 0xFF, 0xFF, 
  0xFF, 0x6F, 0x93, 0x02, 0x00, 0x00, 0x52, 0xFF, 0xFF, 0xFF, 0xFF, 0xFF, 
  0xFF, 0xFF, 0xFF, 0xFF, 0xFF, 0x0F, 0x00, 0x00, 0x00, 0x88, 0x48, 0xFA, 
  0x7D, 0xAE, 0x37, 0xB3, 0xD7, 0x75, 0xE7, 0xFA, 0xFF, 0xB3, 0x00, 0x00, 
  0x40, 0x02, 0x13, 0x04, 0x80, 0x10, 0x80, 0x08, 0x00, 0x00, 0x00, 0x01, 
  0x00, 0x4A, 0x40, 0x02, 0x20, 0x00, 0x10, 0x4A, 0x4C, 0x28, 0x06, 0x01, 
  0x42, 0x29, 0x54, 0x18, 0x86, 0x26, 0x00, 0x00, 0x00, 0x04, 0x48, 0x58, 
  0x21, 0x81, 0x30, 0x24, 0x04, 0x40, 0x00, 0x41, 0x30, 0x00, 0x60, 0x02, 
  0x00, 0xA6, 0x00, 0x21, 0x40, 0x04, 0x02, 0x10, 0x00, 0x01, 0x10, 0x04, 
  0x21, 0x01, 0x09, 0x00, 0x00, 0x00, 0x00, 0x00, 0x00, 0x00, 0x00, 0x00, 
  0x00, 0x00, 0x00, 0x00, 0x00, 0x00, 0x40, 0x00, 0x00, 0x00, 0x04, 0x00, 
  0x00, 0x00, 0x00, 0x00, 0x00, 0x00, 0x00, 0x00, 0x00, 0x80, 0x00, 0x00, 
  0x00, 0x99, 0x00, 0x00, 0x00, 0x00, 0x00, 0x00, 0x00, 0x00, 0x00, 0x00, 
  0x00, 0x10, 0x15, 0x00, 0x00, 0x00, 0x22, 0x00, 0x00, 0x00, 0x00, 0x00, 
  0x00, 0x00, 0x00, 0x00, 0x00, 0x00, 0x24, 0x00, 0x00, 0x24, 0x00, 0x00, 
  0x00, 0x00, 0x00, 0x00, 0x00, 0x00, 0x00, 0x00, 0x00, 0x41, 0x00, 0x00, 
  0x00, 0x00, 0x20, 0x00, 0x00, 0x00, 0x00, 0x00, 0x00, 0x00, 0x00, 0x00, 
  0x00, 0x40, 0x00, 0x00, 0x00, 0x00, 0x04, 0x04, 0x00, 0x00, 0x00, 0x00, 
  0x00, 0x00, 0x00, 0x00, 0x20, 0x1A, 0x00, 0x00, 0x00, 0x00, 0x05, 0x42, 
  0x00, 0x00, 0x00, 0x00, 0x00, 0x00, 0x00, 0x00, 0x80, 0x20, 0x00, 0x00, 
  0x00, 0x00, 0x20, 0x10, 0x80, 0x00, 0x00, 0x00, 0x00, 0x00, 0x00, 0x01, 
  0x18, 0x00, 0x00, 0x00, 0x00, 0x00, 0x00, 0x00, 0x00, 0x00, 0x00, 0x00, 
  0x00, 0x00, 0x00, 0x00, 0x00, 0x00, 0x00, 0x00, 0x00, 0x00, 0x00, 0x00, 
  0x00, 0x00, 0x00, 0x00, 0x00, 0x00, 0x00, 0x00, 0x00, 0x00, 0x00, 0x00, 
  0x00, 0x00, 0x00, 0x00, 0x00, 0x00, 0x00, 0x00, 0x00, 0x00, 0x00, 0x00, 
  0x00, 0x00, 0x00, 0x00, 0x00, 0x00, 0x00, 0x00, 0x00, 0x00, 0x00, 0x00, 
  0x00, 0x00, 0x00, 0x00, 0x00, 0x00, 0x00, 0x00, };
